<?xml version="1.0" encoding="UTF-8" standalone="no"?>
<!-- Created with Inkscape (http://www.inkscape.org/) -->

<svg
   xmlns:dc="http://purl.org/dc/elements/1.1/"
   xmlns:cc="http://creativecommons.org/ns#"
   xmlns:rdf="http://www.w3.org/1999/02/22-rdf-syntax-ns#"
   xmlns:svg="http://www.w3.org/2000/svg"
   xmlns="http://www.w3.org/2000/svg"
   xmlns:sodipodi="http://sodipodi.sourceforge.net/DTD/sodipodi-0.dtd"
   xmlns:inkscape="http://www.inkscape.org/namespaces/inkscape"
   width="512"
   height="512"
   viewBox="0 0 135.46666 135.46667"
   version="1.1"
   id="svg821"
   inkscape:version="0.92.3 (2405546, 2018-03-11)"
   sodipodi:docname="PAMM.svg">
  <defs
     id="defs815" />
  <sodipodi:namedview
     id="base"
     pagecolor="#ffffff"
     bordercolor="#666666"
     borderopacity="1.0"
     inkscape:pageopacity="0.0"
     inkscape:pageshadow="2"
     inkscape:zoom="0.98994949"
     inkscape:cx="200.23232"
     inkscape:cy="315.81708"
     inkscape:document-units="mm"
     inkscape:current-layer="layer2"
     showgrid="false"
     units="px"
     inkscape:measure-start="0,510.127"
     inkscape:measure-end="512.147,508.107"
     inkscape:window-width="1278"
     inkscape:window-height="1008"
     inkscape:window-x="1273"
     inkscape:window-y="0"
     inkscape:window-maximized="0" />
  <metadata
     id="metadata818">
    <rdf:RDF>
      <cc:Work
         rdf:about="">
        <dc:format>image/svg+xml</dc:format>
        <dc:type
           rdf:resource="http://purl.org/dc/dcmitype/StillImage" />
        <dc:title></dc:title>
      </cc:Work>
    </rdf:RDF>
  </metadata>
  <g
     inkscape:groupmode="layer"
     id="layer2"
     inkscape:label="Layer 2"
     style="display:inline">
    <rect
       style="opacity:1;vector-effect:none;fill:#ffffff;fill-opacity:1;stroke:none;stroke-width:0.26499999;stroke-linecap:butt;stroke-linejoin:round;stroke-miterlimit:4;stroke-dasharray:none;stroke-dashoffset:0;stroke-opacity:1"
       id="rect1581"
       width="133.90204"
       height="133.90204"
       x="0.8018086"
       y="0.76282477"
       rx="13.229166"
       ry="13.229166" />
  </g>
  <g
     inkscape:label="Layer 1"
     inkscape:groupmode="layer"
     id="layer1"
     transform="translate(0,-161.53332)"
     sodipodi:insensitive="true"
     style="display:inline">
    <text
       xml:space="preserve"
       style="font-style:normal;font-variant:normal;font-weight:normal;font-stretch:normal;font-size:10.58333302px;line-height:1.25;font-family:Dubai;-inkscape-font-specification:Dubai;letter-spacing:0px;word-spacing:0px;fill:#000000;fill-opacity:1;stroke:none;stroke-width:0.26458332"
       x="31.003263"
       y="247.82239"
       id="text1368"><tspan
         sodipodi:role="line"
         x="31.003263"
         y="257.1355"
         style="font-style:normal;font-variant:normal;font-weight:normal;font-stretch:normal;font-size:50.79999924px;font-family:'Colonna MT';-inkscape-font-specification:'Colonna MT';stroke-width:0.26458332"
         id="tspan1370" /></text>
    <path
       style="fill:#583095;stroke-width:0.47165024"
       d="m 5.3262878,219.89198 c 0,-4.91375 0.1799027,-7.83131 0.4828994,-7.83131 0.2655943,0 0.4828976,0.20732 0.4828976,0.46067 0,0.29315 3.8631862,0.46066 10.6237622,0.46066 h 10.62376 v 6.90998 c 0,4.29952 0.182421,6.90995 0.482898,6.90995 0.265594,0 0.482897,0.2073 0.482897,0.46066 0,0.29431 -4.185116,0.46068 -11.589555,0.46068 H 5.3262878 Z"
       id="path1527"
       inkscape:connector-curvature="0" />
    <path
       style="fill:#583095;stroke-width:0.48289818"
       d="m 35.334966,246.8519 c 0,-0.13944 0.502669,-0.44453 1.117039,-0.67811 0.690347,-0.26247 2.857759,-3.10501 5.674056,-7.4415 l 4.557014,-7.01681 10.761472,-0.0314 c 10.109306,-0.0296 10.733317,0.0197 10.296752,0.8136 -0.255603,0.46479 -2.317761,3.67002 -4.582583,7.12276 -2.264817,3.45272 -3.90907,6.35055 -3.653888,6.43964 0.255183,0.0891 0.341134,0.36071 0.191006,0.60362 -0.282438,0.45699 -24.360868,0.64307 -24.360868,0.18826 z"
       id="path1525"
       inkscape:connector-curvature="0" />
    <path
       style="fill:#583095;stroke-width:0.48289818"
       d="m 105.13927,246.66364 c -0.15021,-0.24291 2e-5,-0.54415 0.33367,-0.66942 0.8641,-0.32446 -4.50757,-5.37049 -8.419147,-7.90877 -3.661096,-2.37575 -6.383565,-3.64976 -11.255964,-5.26743 l -3.380282,-1.12227 18.833033,-0.0109 18.83303,-0.011 4.79092,7.25318 c 2.88775,4.37191 5.02994,7.16145 5.39263,7.02227 0.33097,-0.12703 0.72155,0.0814 0.86799,0.46296 0.22742,0.59262 -1.62978,0.69386 -12.72834,0.69386 -7.33314,0 -13.11352,-0.19242 -13.26754,-0.44166 z"
       id="path1523"
       inkscape:connector-curvature="0" />
    <path
       style="fill:#583095;stroke-width:0.48289818"
       d="m 5.32592,175.36023 v 17.14289 c 0,11.10665 0.1700325,17.14289 0.4828981,17.14289 0.2655942,0 0.4828984,-0.21006 0.4828984,-0.46687 0,-0.29478 12.1528955,-0.51729 32.9578015,-0.60362 l 22.902766,-0.0953 c 4.918168,-7.43702 8.640535,-13.36624 8.409222,-13.44759 -0.251788,-0.0885 -0.457434,-0.36015 -0.457434,-0.60362 0,-0.24205 4.99169,-0.41425 11.99606,-0.43478 0.05428,-3.76796 -0.1988,-7.98951 -0.737555,-9.51651 -1.192903,-3.38106 -4.70547,-6.41521 -8.913808,-7.69995 -1.186205,-0.36222 -1.182,-0.37023 0.24145,-0.45838 1.430739,-0.0885 1.433734,-0.0944 0.241448,-0.47629 -0.663985,-0.21264 -16.146908,-0.40833 -34.406496,-0.4348 z m 76.774212,18.63404 c -0.03694,2.56518 -0.21264,4.9245 -0.553637,6.06263 -0.808734,2.69933 -3.396461,5.46392 -6.574771,7.02466 l -2.764405,1.3572 -10.055035,0.0414 c -0.435198,0.65809 -0.81447,1.24486 -1.267607,1.925 -5.574019,8.3662 -10.350692,15.59157 -10.615272,16.05635 -0.452032,0.79401 0.168423,0.84566 10.280448,0.83471 l 10.761464,-0.011 5.553329,-8.42903 c 4.231617,-6.42304 5.792909,-8.43303 6.562509,-8.44033 0.776192,-0.009 2.314088,1.94602 6.641739,8.44033 l 5.631611,8.45073 h 10.621875 c 5.84223,0 10.62282,-0.11134 10.62282,-0.24711 0,-0.13579 -4.78248,-7.41547 -10.62754,-16.17708 -5.84506,-8.76164 -10.408441,-15.92999 -10.140857,-15.92999 0.267583,0 0.48667,-0.21731 0.48667,-0.48291 0,-0.31023 -4.748508,-0.48289 -13.279701,-0.48289 -0.4648,0 -0.835308,0.005 -1.28364,0.007 z"
       id="path1521"
       inkscape:connector-curvature="0" />
    <path
       style="fill:#ffffff;fill-opacity:1;stroke-width:0.48289818"
       d="m 64.410807,194.94085 c 1.537181,-1.42462 1.630452,-3.06618 0.27232,-4.79277 l -1.005437,-1.27819 -17.948317,0.12648 -17.948318,0.12649 -0.146813,2.84333 c -0.08074,1.56382 -0.03324,3.13927 0.105565,3.50101 0.206572,0.53832 3.441527,0.65768 17.822807,0.65768 h 17.570424 z"
       id="path1519"
       inkscape:connector-curvature="0" />
    <path
       id="path1544"
       inkscape:connector-curvature="0"
       d="m 5.1026783,279.22166 v -4.49792 h 5.6807647 c 4.226316,0 5.720158,0.0847 5.834629,0.33073 0.08463,0.1819 0.201617,2.20607 0.254643,4.49828 l 0.100781,4.16756 -5.935407,-3.7e-4 -5.9354077,-3.6e-4 z m 44.6484387,0.41851 c 0,-2.24367 0.09683,-4.26773 0.21509,-4.49791 0.184031,-0.35808 1.056538,-0.58013 6.024,-0.41852 h 5.808897 v 4.49792 4.49792 h -6.024 -6.023987 z M 5.2916664,261.17985 v -9.39926 l 10.0104636,0.001 10.010463,0.001 2.037165,1.91674 c 3.57116,3.36007 5.672768,5.0901 6.255295,5.14934 0.312469,0.0318 1.244369,-0.56126 2.078822,-1.32292 0.831854,-0.75928 2.585901,-2.36144 3.897878,-3.56036 l 2.385416,-2.17985 10.010459,-0.003 10.010464,-0.003 v 9.39271 9.39271 h -5.808897 c -4.97009,0 -5.839969,-0.0604 -6.024,-0.41852 -0.118259,-0.23018 -0.21509,-2.49237 -0.21509,-5.02708 0,-2.53471 -0.127098,-4.60857 -0.282442,-4.60857 -0.441482,0 -2.53125,1.73372 -5.740526,4.7625 -1.619024,1.52797 -3.670855,3.34367 -4.559622,4.0349 l -1.615936,1.25677 h -4.152753 -4.152751 l -1.58553,-1.25677 c -0.872042,-0.69123 -3.248269,-2.80459 -5.280505,-4.69636 -3.93789,-3.66571 -4.742612,-4.28838 -5.150357,-3.98521 -0.141461,0.10518 -0.336931,2.35457 -0.434377,4.99864 l -0.177177,4.8074 -5.758231,0.0727 -5.7582316,0.0727 z"
       style="fill:#593195;stroke-width:0.30619571"
       sodipodi:nodetypes="ccscsccccscscccccscccccccccccccscssccccccscscccc" />
    <path
       id="path1544-2"
       inkscape:connector-curvature="0"
       d="m 74.650294,279.20856 v -4.49792 h 5.680764 c 4.226316,0 5.720159,0.0847 5.83463,0.33073 0.08463,0.1819 0.199214,2.20613 0.254643,4.49828 l 0.100781,4.16756 -5.935408,-2.6e-4 -5.935407,-2.7e-4 z m 44.648436,0.41851 c 0,-2.24367 0.0968,-4.26773 0.21509,-4.49791 0.18403,-0.35808 1.05654,-0.58013 6.024,-0.41852 h 5.80889 v 4.49792 4.49792 h -6.02399 -6.02399 z M 74.839282,261.16675 v -9.39926 l 10.010464,0.001 10.010463,10e-4 2.037165,1.91674 c 3.571156,3.36007 5.672766,5.0901 6.255296,5.14934 0.31247,0.0318 1.24437,-0.56126 2.07882,-1.32292 0.83185,-0.75928 2.5859,-2.36144 3.89788,-3.56036 l 2.38541,-2.17985 10.01046,-0.003 10.01046,-0.003 v 9.39271 9.39271 h -5.80889 c -4.97009,0 -5.83997,-0.0604 -6.024,-0.41852 -0.11826,-0.23018 -0.21509,-2.49237 -0.21509,-5.02708 0,-2.53471 -0.1271,-4.60857 -0.28244,-4.60857 -0.44149,0 -2.53125,1.73372 -5.74053,4.7625 -1.61902,1.52797 -3.67085,3.34367 -4.55962,4.0349 l -1.61594,1.25677 h -4.15275 -4.152749 l -1.58553,-1.25677 c -0.872042,-0.69123 -3.248269,-2.80459 -5.280505,-4.69636 -3.93789,-3.66571 -4.742612,-4.28838 -5.150357,-3.98521 -0.141461,0.10518 -0.336931,2.35457 -0.434377,4.99864 l -0.177177,4.8074 -5.758232,0.0727 -5.758231,0.0727 z"
       style="fill:#593195;stroke-width:0.30619571"
       sodipodi:nodetypes="ccscsccccscscccccscccccccscccccscssccccccscscccc" />
  </g>
</svg>
